<?xml version="1.0" standalone="no"?>
<!DOCTYPE svg PUBLIC "-//W3C//DTD SVG 20010904//EN"
 "http://www.w3.org/TR/2001/REC-SVG-20010904/DTD/svg10.dtd">
<svg version="1.0" xmlns="http://www.w3.org/2000/svg"
 width="290.000000pt" height="290.000000pt" viewBox="0 0 290.000000 290.000000"
 preserveAspectRatio="xMidYMid meet">
<metadata>
Created by potrace 1.11, written by Peter Selinger 2001-2013
</metadata>
<g transform="translate(0.000000,290.000000) scale(0.100000,-0.100000)"
fill="#000000" stroke="none">
<path d="M1620 2849 c-41 -5 -107 -13 -146 -18 -41 -5 -101 -21 -140 -39 -38
-16 -100 -40 -139 -52 -175 -55 -302 -148 -404 -294 -49 -71 -97 -163 -89
-171 2 -2 28 21 58 51 30 30 58 54 64 54 5 0 2 -8 -6 -17 -9 -10 -31 -52 -50
-94 -20 -42 -53 -95 -74 -119 l-39 -43 45 5 c25 3 52 9 61 12 14 6 17 -3 18
-69 1 -41 -3 -84 -9 -94 -5 -11 -6 -21 -1 -23 5 -2 10 -28 13 -58 l4 -55 -47
3 c-42 3 -51 0 -87 -33 -53 -47 -76 -114 -76 -220 -1 -142 50 -252 152 -329
44 -33 52 -44 58 -82 3 -24 1 -57 -4 -74 -9 -24 -8 -30 2 -30 17 0 26 -22 26
-66 0 -20 4 -33 9 -30 5 3 18 -25 30 -62 21 -65 21 -70 6 -170 -15 -100 -30
-177 -41 -216 -5 -15 -13 -17 -43 -12 -33 5 -41 2 -73 -32 -42 -44 -179 -123
-265 -151 -36 -12 -88 -21 -123 -21 -65 0 -220 -45 -278 -80 -25 -15 -32 -27
-32 -50 l0 -30 49 25 c28 14 58 22 68 19 13 -4 14 -3 5 3 -17 13 53 33 93 27
23 -3 25 -2 11 4 -19 8 -18 9 5 15 13 4 50 7 82 7 32 0 74 7 94 15 43 18 46
18 37 3 -4 -7 -3 -8 5 -4 6 4 9 11 6 16 -3 5 21 23 54 40 67 33 98 36 226 20
44 -5 94 -11 110 -12 33 -2 78 -35 68 -51 -3 -6 -1 -7 5 -3 6 3 14 1 19 -6 4
-7 26 -28 47 -47 39 -33 39 -33 10 -27 -96 21 -421 26 -409 6 2 -4 69 -10 147
-14 179 -8 306 -25 336 -44 23 -15 29 -32 11 -32 -5 0 -7 5 -3 12 5 7 3 8 -5
3 -9 -5 -10 -10 -2 -18 8 -8 14 -8 22 0 9 9 19 6 40 -9 15 -12 26 -24 24 -28
-3 -4 2 -13 10 -20 7 -6 11 -19 8 -28 -6 -14 -5 -15 9 -2 13 12 13 17 1 28
-21 21 -15 27 7 7 12 -10 19 -24 16 -31 -3 -8 1 -11 9 -7 8 3 12 10 8 17 -3 6
3 3 14 -6 11 -11 35 -18 59 -18 l39 1 -70 37 c-85 46 -151 88 -160 101 -6 11
9 9 108 -10 26 -5 62 -9 80 -8 l32 1 -30 9 c-16 5 -75 16 -130 23 l-100 15
-132 135 c-73 74 -133 140 -133 145 0 6 6 11 14 11 19 0 24 9 42 77 25 96 61
441 65 621 1 45 7 89 13 97 8 11 12 -31 14 -167 3 -213 9 -231 94 -315 62 -60
327 -239 443 -300 45 -23 102 -44 130 -48 109 -14 107 -13 90 -45 -17 -33 -65
-70 -92 -71 -11 0 -13 -3 -5 -6 26 -10 73 20 98 63 14 24 29 45 32 45 4 1 26
3 49 4 l42 3 3 -56 c3 -55 -7 -159 -18 -194 -3 -10 0 -18 6 -18 15 0 38 58 48
122 l9 53 13 -30 c19 -44 24 -130 11 -164 -7 -16 -22 -34 -34 -40 -12 -7 -14
-9 -4 -7 24 7 22 1 -19 -44 -37 -41 -29 -54 17 -30 12 7 19 7 19 1 0 -6 92
-10 243 -11 244 0 244 0 255 22 l12 23 -6 -22 c-4 -16 -1 -23 9 -23 9 0 18 6
21 13 5 9 7 9 12 0 8 -18 300 -18 307 0 4 9 8 8 17 -3 10 -13 11 -12 6 5 -6
19 -5 19 8 3 17 -23 25 -23 19 1 -2 10 -17 25 -31 32 -15 7 -39 22 -54 32 -16
10 -28 15 -28 11 0 -3 -7 0 -17 7 -9 8 -26 13 -37 11 -17 -2 -18 -1 -6 7 23
16 -4 13 -49 -5 -22 -9 -46 -14 -53 -11 -7 3 -3 6 9 6 12 1 25 6 29 12 5 9 -1
10 -21 5 -15 -4 -84 -7 -154 -8 -77 -1 -129 -6 -133 -12 -5 -8 -8 -7 -8 2 0 6
-5 12 -11 12 -5 0 -8 -4 -5 -8 3 -5 -13 -8 -34 -8 -22 0 -40 3 -40 7 0 4 -9 5
-20 2 -12 -3 -20 -14 -20 -25 0 -15 -3 -18 -12 -10 -8 6 -29 7 -56 2 -23 -4
-45 -3 -48 1 -3 5 6 9 20 9 14 0 26 4 26 8 0 9 -30 8 -78 -3 -36 -8 -53 -25
-25 -25 17 -1 17 -1 1 -11 -10 -5 -18 -18 -17 -27 0 -10 3 -12 6 -4 2 6 12 12
21 12 14 -1 14 -3 -3 -12 -29 -18 -43 -18 -49 -1 -3 7 -2 12 3 9 10 -7 24 22
16 34 -11 17 48 41 185 75 90 22 129 28 175 28 30 -1 35 1 20 7 -19 8 -18 9 4
9 19 1 21 4 12 15 -9 10 -20 12 -39 6 -15 -4 -61 -14 -102 -21 -41 -7 -97 -20
-125 -30 -73 -25 -105 -31 -105 -19 0 5 5 10 11 10 6 0 7 5 2 13 -4 6 -8 24
-9 39 -1 15 -4 38 -8 52 -5 22 -2 26 21 31 16 3 44 10 64 15 20 6 47 10 60 10
56 0 -30 34 -165 65 -25 6 -28 9 -20 29 9 23 39 21 199 -15 146 -33 317 -94
520 -186 132 -60 208 -111 245 -167 29 -42 50 -47 50 -11 0 65 -135 160 -355
250 -232 96 -307 120 -427 141 -104 17 -124 26 -94 37 12 5 75 79 208 245 50
63 68 125 78 277 11 144 21 221 50 373 32 167 26 368 -11 392 -5 3 -4 44 1 90
10 85 24 410 22 484 -3 69 -37 122 -102 159 -49 27 -57 35 -49 50 6 10 17 42
25 73 23 91 -7 128 -118 141 -32 4 -49 11 -53 23 -20 63 -269 112 -455 89z
m-147 -68 c-60 -40 -148 -138 -190 -213 -13 -24 -16 -32 -6 -18 98 135 169
208 240 243 78 41 303 46 423 11 64 -19 131 -54 124 -65 -2 -4 23 -13 56 -20
79 -15 110 -40 110 -85 0 -27 -10 -43 -53 -86 -29 -29 -79 -71 -111 -92 -61
-40 -336 -186 -352 -186 -5 0 21 30 57 68 99 101 103 110 49 82 -51 -26 -296
-180 -415 -262 -44 -30 -93 -63 -109 -74 l-29 -18 28 44 c32 52 90 124 156
195 26 28 61 68 79 90 18 22 -13 -7 -69 -65 -55 -58 -117 -128 -138 -157 -40
-54 -41 -55 -288 -168 -118 -54 -129 -54 -72 -1 43 40 15 22 -41 -27 -46 -41
-40 -45 34 -22 61 18 65 18 58 1 -3 -8 7 -28 23 -46 l29 -32 -29 -59 c-24 -51
-33 -60 -65 -68 -68 -18 -76 -16 -122 29 -35 34 -44 49 -41 72 1 15 -2 28 -7
28 -11 0 -8 252 3 270 4 6 25 22 47 36 22 14 37 28 35 31 -3 3 -18 -4 -34 -15
-35 -24 -136 -72 -141 -67 -2 2 7 19 21 37 14 18 39 62 57 98 18 36 46 84 61
107 16 23 29 44 29 48 0 10 -59 -24 -95 -56 -19 -17 -35 -28 -35 -25 0 12 66
113 105 160 81 97 217 181 360 220 33 9 81 28 107 42 49 26 187 65 201 57 4
-2 -18 -22 -50 -42z m732 -252 c-9 -17 -15 -32 -13 -34 2 -1 21 -12 43 -23 22
-11 55 -36 73 -55 28 -29 34 -44 38 -93 l6 -59 -17 30 c-9 17 -20 34 -26 40
-17 17 -9 -5 16 -45 24 -38 24 -41 19 -207 -8 -250 -21 -319 -23 -120 -1 135
-5 173 -27 258 -27 107 -58 184 -100 250 l-26 41 23 24 c30 32 33 30 14 -7z
m-28 -81 c64 -102 123 -289 123 -391 0 -28 -1 -29 -18 -14 -32 29 -85 45 -137
40 -68 -5 -150 -29 -165 -48 -10 -13 -15 -13 -21 -3 -5 9 -15 -3 -29 -35 -12
-27 -19 -51 -16 -55 4 -3 41 3 84 14 90 22 188 25 255 5 45 -13 47 -15 47 -50
0 -20 -5 -52 -10 -71 l-10 -35 -132 0 c-139 -1 -233 -16 -242 -41 -5 -13 -9
-13 -28 0 -38 24 -89 28 -135 12 -40 -14 -43 -14 -43 3 0 24 -35 30 -225 37
-157 6 -333 -6 -344 -24 -4 -6 -26 -14 -49 -18 -50 -8 -53 1 -18 62 l23 41
-29 32 c-16 18 -28 40 -26 49 2 10 46 38 108 69 58 29 106 52 108 53 1 0 -5
-11 -14 -25 -9 -14 -15 -28 -13 -30 7 -6 228 133 409 256 85 58 162 109 170
114 8 4 -24 -32 -72 -81 -49 -49 -88 -92 -88 -96 0 -27 379 172 460 241 19 17
38 30 42 31 4 0 20 -19 35 -42z m73 -410 c60 -41 69 -84 13 -59 -50 23 -161
24 -240 4 -40 -11 -73 -16 -73 -12 0 4 10 20 23 34 46 54 217 74 277 33z
m-1461 -243 c35 -17 120 -110 133 -145 6 -14 13 -92 16 -174 6 -134 5 -152
-11 -180 -55 -93 -136 -87 -232 15 -69 74 -88 125 -93 245 -4 87 -1 107 18
152 39 91 101 123 169 87z m866 -27 c13 -12 25 -146 19 -197 -10 -84 -16 -87
-200 -96 -179 -8 -224 -3 -252 28 -23 26 -45 158 -36 217 6 38 8 39 53 45 25
4 53 8 61 10 23 6 349 -1 355 -7z m620 -139 c0 -89 -4 -131 -13 -142 -15 -18
-81 -34 -166 -41 -67 -5 -71 -2 -137 100 -33 52 -39 70 -39 116 0 58 13 83 45
91 11 3 85 4 165 3 l145 -1 0 -126z m-406 86 c17 -20 31 -43 30 -53 0 -15 -2
-14 -14 3 -38 54 -44 60 -45 44 0 -8 25 -58 56 -110 89 -151 144 -263 144
-297 0 -18 -10 -43 -25 -60 -32 -39 -32 -43 5 -30 58 20 77 101 40 173 -11 22
-20 40 -20 41 0 0 39 4 86 7 51 4 101 13 122 24 33 16 39 24 53 83 l17 65 7
-49 c9 -57 2 -186 -20 -366 -8 -69 -20 -174 -25 -235 -5 -60 -17 -130 -26
-155 -22 -59 -207 -306 -244 -325 -37 -19 -279 -36 -375 -27 -63 7 -82 14
-182 75 -62 37 -159 99 -215 139 -257 178 -268 200 -268 526 0 103 -5 241 -11
307 -17 198 -18 180 16 180 17 0 32 3 35 7 6 7 133 38 138 33 2 -1 7 -29 12
-62 12 -86 30 -140 56 -164 31 -29 111 -36 288 -27 115 5 142 10 157 25 22 21
39 102 39 180 0 51 2 55 33 68 17 8 48 14 68 15 30 0 43 -7 68 -35z m490 -119
c-1 -95 -3 -103 -9 -56 -4 30 -15 72 -24 92 -19 44 -20 70 -4 86 8 8 15 9 25
1 9 -9 13 -41 12 -123z m-1479 -443 c0 -95 -13 -245 -20 -231 -4 7 -11 32 -15
56 -4 23 -11 42 -16 42 -5 0 -9 15 -9 34 0 19 -4 36 -8 38 -4 2 -6 27 -4 56 4
52 4 52 38 52 34 0 34 0 34 -47z m1826 -1101 c-4 -3 -14 2 -24 12 -16 18 -16
18 6 6 13 -6 21 -14 18 -18z m-30 -7 c10 -8 14 -15 7 -15 -6 0 -20 -3 -30 -6
-15 -5 -16 -4 -3 5 13 10 13 12 0 21 -8 5 -10 10 -4 10 5 0 19 -7 30 -15z m69
-5 c-3 -5 -14 -10 -23 -10 -15 0 -15 2 -2 10 20 13 33 13 25 0z"/>
<path d="M1699 2553 c-13 -16 -12 -17 4 -4 9 7 17 15 17 17 0 8 -8 3 -21 -13z"/>
<path d="M933 2245 c-3 -9 -3 -18 -1 -21 3 -3 8 4 11 16 6 23 -1 27 -10 5z"/>
<path d="M916 2195 c-3 -9 -6 -22 -5 -28 0 -7 5 -1 10 12 5 13 8 26 5 28 -2 2
-6 -3 -10 -12z"/>
<path d="M965 2186 c-16 -13 -27 -27 -24 -30 3 -3 18 8 34 24 35 36 31 38 -10
6z"/>
<path d="M1135 2145 c-114 -90 -134 -109 -60 -56 73 53 144 110 135 111 -3 0
-36 -25 -75 -55z"/>
<path d="M910 2140 c-8 -5 -12 -12 -9 -15 4 -3 12 1 19 10 14 17 11 19 -10 5z"/>
<path d="M1428 2075 c-25 -7 -73 -29 -105 -48 -61 -38 -193 -152 -193 -168 0
-5 24 1 53 13 28 12 102 38 162 59 100 35 119 38 216 39 114 0 169 7 169 22 0
5 -7 25 -15 46 -12 27 -18 33 -24 23 -7 -11 -11 -9 -20 8 -11 19 -20 21 -104
20 -51 0 -113 -7 -139 -14z m243 -37 c12 -16 20 -30 18 -32 -2 -1 -62 -8 -134
-14 -107 -8 -149 -17 -235 -47 -58 -21 -109 -41 -115 -46 -5 -5 -13 -9 -18 -9
-11 0 92 85 148 122 57 38 92 49 192 57 108 8 118 6 144 -31z"/>
<path d="M1871 1868 c-17 -47 -23 -73 -15 -65 10 9 34 87 28 87 -3 0 -8 -10
-13 -22z"/>
<path d="M720 1748 c0 -4 16 -24 36 -45 51 -55 60 -73 35 -73 -40 0 -67 -81
-40 -120 8 -12 9 -10 4 8 -8 26 3 98 12 88 3 -3 12 -1 18 4 21 18 40 2 79 -66
l38 -66 -28 -29 c-25 -26 -28 -27 -55 -14 -15 8 -30 24 -34 35 -3 11 -11 20
-16 20 -18 0 12 -42 42 -58 16 -10 27 -23 24 -29 -3 -7 -8 -19 -11 -27 -3 -9
10 -30 31 -53 20 -21 32 -29 26 -17 -5 11 -17 26 -25 34 -25 20 -19 40 24 91
l40 47 -55 89 c-50 80 -144 198 -145 181z"/>
<path d="M1370 1700 c-40 -40 -17 -150 30 -150 35 0 56 72 25 84 -18 7 -20 37
-3 54 10 10 10 15 -2 22 -21 14 -28 12 -50 -10z"/>
<path d="M2016 1688 c-29 -41 -16 -138 19 -138 7 0 23 12 34 26 22 28 28 64
10 64 -6 0 -9 14 -7 33 2 26 -1 33 -19 35 -13 2 -27 -5 -37 -20z"/>
<path d="M1006 1431 c2 -113 7 -207 10 -210 4 -3 3 56 -1 132 -3 75 -5 137 -2
137 2 0 19 -29 37 -65 18 -36 39 -70 47 -77 8 -6 -7 30 -33 80 -30 59 -49 112
-54 150 -5 34 -7 -26 -4 -147z"/>
<path d="M1722 1370 c-31 -13 -43 -50 -31 -94 16 -57 28 -52 26 11 -2 57 -2
58 31 68 18 6 29 14 26 18 -9 9 -23 8 -52 -3z"/>
<path d="M1385 1281 c-32 -8 -105 -51 -105 -63 0 -4 22 7 50 24 32 20 63 31
89 32 22 0 34 4 28 8 -14 9 -21 9 -62 -1z"/>
<path d="M1510 1248 c96 -42 189 -60 340 -63 l145 -3 -135 8 c-136 7 -215 22
-324 59 -74 26 -85 26 -26 -1z"/>
<path d="M1794 1260 c-42 -17 -32 -25 32 -27 65 -1 74 3 52 25 -14 14 -53 15
-84 2z"/>
<path d="M2120 1220 c-11 -7 -5 -8 20 -4 43 8 51 14 19 14 -13 0 -31 -5 -39
-10z"/>
<path d="M1023 1170 c0 -25 2 -35 4 -22 2 12 2 32 0 45 -2 12 -4 2 -4 -23z"/>
<path d="M2028 1193 c7 -3 16 -2 19 1 4 3 -2 6 -13 5 -11 0 -14 -3 -6 -6z"/>
<path d="M2204 1180 c2 -14 8 -59 11 -100 7 -75 32 -176 42 -166 3 3 -1 25
-10 48 -8 24 -18 81 -21 127 -4 46 -11 91 -17 100 -8 13 -9 11 -5 -9z"/>
<path d="M1253 1125 c0 -27 2 -38 4 -22 2 15 2 37 0 50 -2 12 -4 0 -4 -28z"/>
<path d="M1362 1148 c-8 -8 -12 -53 -12 -138 l0 -125 88 -87 c48 -48 104 -94
126 -103 21 -9 86 -23 145 -30 177 -24 295 -17 330 21 13 14 11 13 -14 -2 -54
-35 -361 -20 -465 23 -19 7 -72 51 -117 96 l-83 82 0 106 0 107 58 -57 c122
-120 279 -193 416 -194 94 -1 135 18 176 80 19 26 55 71 82 100 26 28 48 59
48 67 0 22 -7 20 -41 -9 -42 -35 -89 -47 -208 -52 -153 -8 -281 15 -444 80
-52 20 -74 33 -65 38 7 5 8 9 3 9 -6 0 -16 -5 -23 -12z m117 -74 c2 -2 0 -15
-3 -29 l-7 -26 -27 21 c-15 12 -40 37 -55 55 l-28 34 58 -26 c32 -14 60 -27
62 -29z m104 -25 c46 -11 47 -11 47 -50 l0 -40 -47 7 c-71 10 -106 31 -99 57
3 12 6 28 6 36 0 9 7 11 23 7 12 -4 43 -11 70 -17z m130 -29 c11 0 17 -8 17
-24 0 -44 -8 -52 -46 -48 -39 5 -49 19 -40 58 6 21 11 25 29 20 12 -3 30 -6
40 -6z m254 -14 c24 -23 -81 -66 -163 -66 l-64 0 0 33 c0 19 2 36 4 38 6 6
217 1 223 -5z m-232 -77 c100 -10 123 -15 138 -32 18 -20 18 -21 -1 -28 -31
-12 -174 18 -243 51 -35 17 -53 28 -39 25 14 -3 79 -10 145 -16z"/>
<path d="M2012 1090 c0 -14 2 -19 5 -12 2 6 2 18 0 25 -3 6 -5 1 -5 -13z"/>
<path d="M1066 1060 c9 -16 56 -71 118 -135 22 -22 31 -29 20 -15 -51 65 -150
173 -138 150z"/>
<path d="M1246 1024 c-4 -20 -5 -38 -3 -40 3 -3 8 11 11 32 4 20 5 38 3 40 -3
3 -8 -11 -11 -32z"/>
<path d="M1239 915 c-6 -40 -4 -53 7 -43 3 3 4 23 2 44 l-3 39 -6 -40z"/>
<path d="M2122 910 c0 -14 2 -19 5 -12 2 6 2 18 0 25 -3 6 -5 1 -5 -13z"/>
<path d="M2132 860 c0 -14 2 -19 5 -12 2 6 2 18 0 25 -3 6 -5 1 -5 -13z"/>
<path d="M1369 813 c-13 -16 -12 -17 4 -4 9 7 17 15 17 17 0 8 -8 3 -21 -13z"/>
<path d="M2099 788 c-12 -24 -28 -51 -37 -60 -8 -10 -11 -18 -5 -18 6 0 25 27
42 60 18 33 30 60 27 60 -3 0 -15 -19 -27 -42z"/>
<path d="M1845 770 c-13 -6 -15 -9 -5 -9 8 0 22 4 30 9 18 12 2 12 -25 0z"/>
<path d="M1768 753 c12 -2 30 -2 40 0 9 3 -1 5 -23 4 -22 0 -30 -2 -17 -4z"/>
<path d="M1285 689 c-4 -6 -5 -12 -2 -15 2 -3 7 2 10 11 7 17 1 20 -8 4z"/>
<path d="M1288 305 c22 -44 48 -89 57 -100 8 -11 -5 20 -31 70 -26 50 -51 95
-57 100 -5 6 9 -26 31 -70z"/>
<path d="M836 297 c3 -10 9 -15 12 -12 3 3 0 11 -7 18 -10 9 -11 8 -5 -6z"/>
<path d="M810 286 c0 -2 7 -9 15 -16 13 -11 14 -10 9 4 -5 14 -24 23 -24 12z"/>
<path d="M508 273 c7 -3 16 -2 19 1 4 3 -2 6 -13 5 -11 0 -14 -3 -6 -6z"/>
<path d="M878 258 c-10 -10 -14 -18 -9 -18 10 0 36 29 30 34 -2 1 -12 -6 -21
-16z"/>
<path d="M2204 226 c11 -9 24 -16 30 -16 12 0 7 5 -24 19 -24 11 -24 11 -6 -3z"/>
<path d="M2281 236 c2 -2 20 -6 39 -10 25 -4 31 -3 20 4 -14 9 -69 15 -59 6z"/>
<path d="M946 219 c4 -8 -1 -9 -17 -4 -19 5 -21 4 -9 -4 22 -15 40 -13 40 4 0
8 -5 15 -11 15 -5 0 -7 -5 -3 -11z"/>
<path d="M2152 221 c-11 -7 -11 -9 0 -14 9 -3 15 1 15 9 0 8 -1 14 -1 14 -1 0
-7 -4 -14 -9z"/>
<path d="M2391 196 c-10 -12 -8 -13 8 -9 12 3 18 9 15 14 -7 12 -10 11 -23 -5z"/>
<path d="M178 193 c7 -3 16 -2 19 1 4 3 -2 6 -13 5 -11 0 -14 -3 -6 -6z"/>
<path d="M1987 169 c7 -7 15 -10 18 -7 3 3 -2 9 -12 12 -14 6 -15 5 -6 -5z"/>
<path d="M2485 160 c-3 -6 1 -7 9 -4 18 7 21 14 7 14 -6 0 -13 -4 -16 -10z"/>
<path d="M2540 145 c14 -8 30 -14 35 -14 6 0 -1 6 -15 14 -14 8 -29 14 -35 14
-5 0 1 -6 15 -14z"/>
<path d="M2491 136 c-10 -12 -8 -13 8 -9 12 3 18 9 15 14 -7 12 -10 11 -23 -5z"/>
<path d="M2110 129 c0 -5 5 -7 10 -4 6 3 10 8 10 11 0 2 -4 4 -10 4 -5 0 -10
-5 -10 -11z"/>
<path d="M230 126 c0 -2 16 -13 36 -25 19 -12 32 -26 29 -31 -3 -6 -1 -10 5
-10 6 0 8 -5 5 -10 -4 -6 -12 -4 -22 5 -21 21 -30 10 -11 -12 9 -10 13 -23 11
-30 -5 -13 93 -13 115 0 6 5 12 4 12 -1 0 -12 34 -11 42 2 5 8 8 7 8 -1 0 -10
77 -13 350 -13 328 0 350 1 347 17 -1 10 -6 24 -10 30 -5 7 -5 13 0 13 4 0 1
5 -7 10 -8 6 -28 7 -43 4 -17 -3 -34 0 -44 8 -15 11 -16 11 -10 -4 3 -10 1
-20 -5 -24 -7 -4 -8 -3 -4 4 4 7 -2 14 -16 17 -44 10 -153 23 -160 18 -5 -2
-8 -1 -8 4 0 4 -106 9 -236 11 l-236 4 13 -24 c11 -20 10 -22 -3 -10 -13 10
-17 10 -22 -4 -9 -22 -8 -23 13 -19 13 2 18 -1 16 -13 -2 -9 -4 -19 -4 -21 -2
-8 -51 42 -51 51 0 5 4 7 9 4 13 -9 23 26 11 38 -7 7 -14 6 -22 -2 -9 -9 -9
-12 3 -12 12 0 12 -1 0 -9 -10 -7 -24 -2 -44 15 -24 20 -67 33 -67 20z m247
-32 c-3 -3 -12 -4 -19 -1 -8 3 -5 6 6 6 11 1 17 -2 13 -5z m-133 -63 c17 -19
17 -19 -1 -16 -10 2 -20 4 -23 5 -3 1 -9 2 -14 1 -5 -1 -4 5 4 13 15 20 13 20
34 -3z m746 9 c0 -5 -4 -10 -10 -10 -5 0 -10 5 -10 10 0 6 5 10 10 10 6 0 10
-4 10 -10z m54 -11 c-3 -5 -10 -7 -15 -3 -5 3 -7 10 -3 15 3 5 10 7 15 3 5 -3
7 -10 3 -15z m-99 1 c3 -5 1 -10 -4 -10 -6 0 -11 5 -11 10 0 6 2 10 4 10 3 0
8 -4 11 -10z"/>
<path d="M2155 120 c3 -5 8 -10 11 -10 2 0 4 5 4 10 0 6 -5 10 -11 10 -5 0 -7
-4 -4 -10z"/>
<path d="M310 111 c0 -6 4 -13 10 -16 6 -3 7 1 4 9 -7 18 -14 21 -14 7z"/>
<path d="M95 100 c-11 -5 -37 -9 -57 -9 l-38 -1 0 -45 0 -45 135 0 c139 0 150
4 124 40 -9 12 -10 11 -4 -5 3 -11 3 -16 -2 -12 -4 5 -8 22 -9 39 -1 17 1 27
5 22 6 -9 41 -16 41 -8 0 22 -156 41 -195 24z m-38 -76 c-3 -3 -12 -4 -19 -1
-8 3 -5 6 6 6 11 1 17 -2 13 -5z"/>
<path d="M1455 71 c43 -25 101 -43 127 -39 17 3 13 6 -17 12 -22 4 -59 16 -83
27 -54 24 -66 25 -27 0z"/>
</g>
</svg>
