<?xml version="1.0" standalone="no"?>
<!DOCTYPE svg PUBLIC "-//W3C//DTD SVG 20010904//EN"
 "http://www.w3.org/TR/2001/REC-SVG-20010904/DTD/svg10.dtd">
<svg version="1.0" xmlns="http://www.w3.org/2000/svg"
 width="248.000000pt" height="248.000000pt" viewBox="0 0 248.000000 248.000000"
 preserveAspectRatio="xMidYMid meet">
<metadata>
Created by potrace 1.11, written by Peter Selinger 2001-2013
</metadata>
<g transform="translate(0.000000,248.000000) scale(0.100000,-0.100000)"
fill="#000000" stroke="none">
<path d="M104 2469 c-3 -5 -9 -7 -13 -5 -9 6 -64 -49 -79 -79 -6 -13 -10 -402
-9 -1145 1 -1063 2 -1127 19 -1160 10 -19 18 -32 18 -27 0 4 9 -2 19 -12 11
-11 37 -24 58 -30 24 -6 442 -10 1127 -9 1178 0 1131 -2 1181 52 54 59 52 -4
51 1189 -1 955 -3 1106 -16 1135 -8 17 -18 32 -22 32 -5 0 -8 8 -8 17 0 9 -3
13 -6 10 -4 -4 -15 3 -25 14 -10 12 -22 18 -28 15 -5 -4 -12 -2 -15 3 -7 11
-2245 11 -2252 0z m2218 -137 c10 -10 13 -220 14 -1090 0 -936 -2 -1078 -15
-1088 -10 -8 -317 -11 -1085 -11 -951 -1 -1073 1 -1088 15 -17 14 -18 78 -18
1083 0 587 3 1074 6 1083 3 9 10 13 15 10 5 -3 9 -1 9 4 0 5 445 8 1075 8 867
-1 1077 -4 1087 -14z"/>
<path d="M1184 2083 c-10 -7 -14 -13 -10 -13 5 0 4 -6 -1 -12 -11 -13 -16
-1477 -6 -1531 8 -47 83 -67 118 -32 20 20 20 33 20 787 0 854 4 806 -67 811
-20 2 -44 -3 -54 -10z"/>
<path d="M1845 1756 c-10 -6 -24 -15 -30 -21 -7 -7 -9 -208 -8 -620 1 -335 2
-613 2 -617 1 -9 40 -21 71 -22 58 -2 57 -20 56 650 -1 337 -4 615 -7 618 -4
4 -16 8 -28 11 -11 2 -24 6 -29 8 -4 3 -16 0 -27 -7z"/>
<path d="M541 1307 c-8 -8 -11 -139 -11 -413 0 -447 -5 -415 69 -418 63 -3 61
-15 61 430 -1 308 -4 404 -13 405 -74 6 -97 5 -106 -4z"/>
</g>
</svg>
